<svg xmlns="http://www.w3.org/2000/svg" width="805" height="600"><rect width="805" height="600" x="0" y="0" fill="#FFFFFF" id="background"/><g transform="translate(50,10)" id="viz"><g id="y axis" fill="none" font-size="10" font-family="sans-serif" text-anchor="end"><path class="domain" stroke="currentColor" d="M-6,554H0V0H-6"/><g class="tick" opacity="1" transform="translate(0,554)"><line stroke="currentColor" x2="-6"/><text fill="currentColor" x="-9" dy="0.32em">0</text></g><g class="tick" opacity="1" transform="translate(0,492.4444444444444)"><line stroke="currentColor" x2="-6"/><text fill="currentColor" x="-9" dy="0.32em">10</text></g><g class="tick" opacity="1" transform="translate(0,430.8888888888889)"><line stroke="currentColor" x2="-6"/><text fill="currentColor" x="-9" dy="0.32em">20</text></g><g class="tick" opacity="1" transform="translate(0,369.33333333333337)"><line stroke="currentColor" x2="-6"/><text fill="currentColor" x="-9" dy="0.32em">30</text></g><g class="tick" opacity="1" transform="translate(0,307.77777777777777)"><line stroke="currentColor" x2="-6"/><text fill="currentColor" x="-9" dy="0.32em">40</text></g><g class="tick" opacity="1" transform="translate(0,246.2222222222222)"><line stroke="currentColor" x2="-6"/><text fill="currentColor" x="-9" dy="0.32em">50</text></g><g class="tick" opacity="1" transform="translate(0,184.66666666666669)"><line stroke="currentColor" x2="-6"/><text fill="currentColor" x="-9" dy="0.32em">60</text></g><g class="tick" opacity="1" transform="translate(0,123.1111111111111)"><line stroke="currentColor" x2="-6"/><text fill="currentColor" x="-9" dy="0.32em">70</text></g><g class="tick" opacity="1" transform="translate(0,61.555555555555586)"><line stroke="currentColor" x2="-6"/><text fill="currentColor" x="-9" dy="0.32em">80</text></g><g class="tick" opacity="1" transform="translate(0,0)"><line stroke="currentColor" x2="-6"/><text fill="currentColor" x="-9" dy="0.32em">90</text></g><text x="4" text-anchor="start" dominant-baseline="hanging" style="font-family: Arial, sans-serif; font-size: 12px; fill: rgb(123, 123, 123); font-weight: bold;">Age_clean</text></g><g id="x axis" transform="translate(0,554)" fill="none" font-size="10" font-family="sans-serif" text-anchor="middle"><path class="domain" stroke="currentColor" d="M0,6V0H745V6"/><g class="tick" opacity="1" transform="translate(187,0)"><line stroke="currentColor" y2="6"/><text fill="currentColor" y="9" dy="0.71em">male</text></g><g class="tick" opacity="1" transform="translate(559,0)"><line stroke="currentColor" y2="6"/><text fill="currentColor" y="9" dy="0.71em">female</text></g></g><g id="boxplots"><g><line x1="187" x2="187" y1="384.72222222222223" y2="507.8333333333333" stroke="#b8e986" stroke-dasharray="4"/><line x1="162" x2="212" y1="384.72222222222223" y2="384.72222222222223" stroke="#b8e986"/><line x1="162" x2="212" y1="507.8333333333333" y2="507.8333333333333" stroke="#b8e986"/><rect x="162" y="430.8888888888889" width="50" height="30.77777777777777" fill="#b8e986"/><line x1="162" y1="449.35555555555555" x2="212" y2="449.35555555555555" stroke="#FFFFFF"/><circle r="4" cx="187" cy="375.4888888888889" fill="#FFFFFF" stroke="#b8e986"/><circle r="4" cx="187" cy="283.1555555555555" fill="#FFFFFF" stroke="#b8e986"/><circle r="4" cx="187" cy="381.64444444444445" fill="#FFFFFF" stroke="#b8e986"/><circle r="4" cx="187" cy="350.8666666666667" fill="#FFFFFF" stroke="#b8e986"/><circle r="4" cx="187" cy="381.64444444444445" fill="#FFFFFF" stroke="#b8e986"/><circle r="4" cx="187" cy="289.3111111111111" fill="#FFFFFF" stroke="#b8e986"/><circle r="4" cx="187" cy="12.31111111111113" fill="#FFFFFF" stroke="#b8e986"/><circle r="4" cx="187" cy="381.64444444444445" fill="#FFFFFF" stroke="#b8e986"/><circle r="4" cx="187" cy="375.4888888888889" fill="#FFFFFF" stroke="#b8e986"/><circle r="4" cx="187" cy="369.33333333333337" fill="#FFFFFF" stroke="#b8e986"/><circle r="4" cx="187" cy="307.77777777777777" fill="#FFFFFF" stroke="#b8e986"/><circle r="4" cx="187" cy="517.0666666666667" fill="#FFFFFF" stroke="#b8e986"/><circle r="4" cx="187" cy="258.53333333333336" fill="#FFFFFF" stroke="#b8e986"/><circle r="4" cx="187" cy="344.7111111111111" fill="#FFFFFF" stroke="#b8e986"/><circle r="4" cx="187" cy="313.93333333333334" fill="#FFFFFF" stroke="#b8e986"/><circle r="4" cx="187" cy="283.1555555555555" fill="#FFFFFF" stroke="#b8e986"/><circle r="4" cx="187" cy="344.7111111111111" fill="#FFFFFF" stroke="#b8e986"/><circle r="4" cx="187" cy="320.08888888888885" fill="#FFFFFF" stroke="#b8e986"/><circle r="4" cx="187" cy="246.2222222222222" fill="#FFFFFF" stroke="#b8e986"/><circle r="4" cx="187" cy="535.5333333333333" fill="#FFFFFF" stroke="#b8e986"/><circle r="4" cx="187" cy="547.8444444444444" fill="#FFFFFF" stroke="#b8e986"/><circle r="4" cx="187" cy="381.64444444444445" fill="#FFFFFF" stroke="#b8e986"/><circle r="4" cx="187" cy="338.5555555555556" fill="#FFFFFF" stroke="#b8e986"/><circle r="4" cx="187" cy="547.8444444444444" fill="#FFFFFF" stroke="#b8e986"/><circle r="4" cx="187" cy="301.62222222222226" fill="#FFFFFF" stroke="#b8e986"/><circle r="4" cx="187" cy="529.3777777777779" fill="#FFFFFF" stroke="#b8e986"/><circle r="4" cx="187" cy="375.4888888888889" fill="#FFFFFF" stroke="#b8e986"/><circle r="4" cx="187" cy="326.24444444444447" fill="#FFFFFF" stroke="#b8e986"/><circle r="4" cx="187" cy="375.4888888888889" fill="#FFFFFF" stroke="#b8e986"/><circle r="4" cx="187" cy="313.93333333333334" fill="#FFFFFF" stroke="#b8e986"/><circle r="4" cx="187" cy="277" fill="#FFFFFF" stroke="#b8e986"/><circle r="4" cx="187" cy="523.2222222222222" fill="#FFFFFF" stroke="#b8e986"/><circle r="4" cx="187" cy="381.64444444444445" fill="#FFFFFF" stroke="#b8e986"/><circle r="4" cx="187" cy="523.2222222222222" fill="#FFFFFF" stroke="#b8e986"/></g><g><line x1="559" x2="559" y1="426.2722222222222" y2="487.8277777777778" stroke="#eda6af" stroke-dasharray="4"/><line x1="534" x2="584" y1="426.2722222222222" y2="426.2722222222222" stroke="#eda6af"/><line x1="534" x2="584" y1="487.8277777777778" y2="487.8277777777778" stroke="#eda6af"/><rect x="534" y="449.35555555555555" width="50" height="15.388888888888914" fill="#eda6af"/><line x1="534" y1="455.5111111111111" x2="584" y2="455.5111111111111" stroke="#FFFFFF"/><circle r="4" cx="559" cy="412.4222222222222" fill="#FFFFFF" stroke="#eda6af"/><circle r="4" cx="559" cy="375.4888888888889" fill="#FFFFFF" stroke="#eda6af"/><circle r="4" cx="559" cy="510.91111111111115" fill="#FFFFFF" stroke="#eda6af"/><circle r="4" cx="559" cy="375.4888888888889" fill="#FFFFFF" stroke="#eda6af"/><circle r="4" cx="559" cy="517.0666666666667" fill="#FFFFFF" stroke="#eda6af"/><circle r="4" cx="559" cy="246.2222222222222" fill="#FFFFFF" stroke="#eda6af"/><circle r="4" cx="559" cy="498.6" fill="#FFFFFF" stroke="#eda6af"/><circle r="4" cx="559" cy="498.6" fill="#FFFFFF" stroke="#eda6af"/><circle r="4" cx="559" cy="369.33333333333337" fill="#FFFFFF" stroke="#eda6af"/><circle r="4" cx="559" cy="387.79999999999995" fill="#FFFFFF" stroke="#eda6af"/><circle r="4" cx="559" cy="492.4444444444444" fill="#FFFFFF" stroke="#eda6af"/><circle r="4" cx="559" cy="424.7333333333333" fill="#FFFFFF" stroke="#eda6af"/></g></g><g id="boxplots"><g><text x="216" y="384.72222222222223" dominant-baseline="middle" style="font-family: Arial, sans-serif; font-size: 10px; fill: black; font-weight: normal;">27.5</text><text x="216" y="507.8333333333333" dominant-baseline="middle" style="font-family: Arial, sans-serif; font-size: 10px; fill: black; font-weight: normal;">7.5</text><text x="216" y="449.35555555555555" dominant-baseline="middle" style="font-family: Arial, sans-serif; font-size: 10px; fill: black; font-weight: normal;">17</text><text x="158" y="461.6666666666667" dominant-baseline="middle" text-anchor="end" style="font-family: Arial, sans-serif; font-size: 10px; fill: black; font-weight: normal;">15</text><text x="183" y="430.8888888888889" dominant-baseline="middle" text-anchor="end" style="font-family: Arial, sans-serif; font-size: 10px; fill: black; font-weight: normal;">20</text></g><g><text x="588" y="426.2722222222222" dominant-baseline="middle" style="font-family: Arial, sans-serif; font-size: 10px; fill: black; font-weight: normal;">20.75</text><text x="588" y="487.8277777777778" dominant-baseline="middle" style="font-family: Arial, sans-serif; font-size: 10px; fill: black; font-weight: normal;">10.75</text><text x="588" y="455.5111111111111" dominant-baseline="middle" style="font-family: Arial, sans-serif; font-size: 10px; fill: black; font-weight: normal;">16</text><text x="530" y="464.74444444444447" dominant-baseline="middle" text-anchor="end" style="font-family: Arial, sans-serif; font-size: 10px; fill: black; font-weight: normal;">14.5</text><text x="555" y="449.35555555555555" dominant-baseline="middle" text-anchor="end" style="font-family: Arial, sans-serif; font-size: 10px; fill: black; font-weight: normal;">17</text></g></g></g></svg>